<svg width="300" height="60" viewBox="0 0 300 60" fill="none" xmlns="http://www.w3.org/2000/svg">
<rect width="300" height="60" rx="30" fill="#BF125D"/>
<path d="M66.1547 27.128H53.8203L57.2483 19.4761C57.3123 19.3064 57.422 19.1625 57.5627 19.0637C57.7034 18.9649 57.8683 18.916 58.035 18.9236H71.8716L69.8675 24.4088C69.5633 25.2162 69.0479 25.9057 68.3868 26.3899C67.7257 26.874 66.9488 27.1309 66.1547 27.128Z" fill="url(#paint0_linear_7677_59875)"/>
<path d="M69.4103 45.9998H62.6649C62.1375 45.9997 61.6212 45.8467 61.1771 45.559C60.7329 45.2712 60.3796 44.8608 60.1588 44.3761L53.2441 29.1079C53.0791 28.7465 52.9957 28.3524 53.0002 27.9542C53.0046 27.5561 53.0968 27.164 53.2699 26.8065L56.8983 19.3921C56.9659 19.2525 57.0706 19.1346 57.2005 19.0518C57.3305 18.9689 57.4807 18.9243 57.6343 18.9229H58.201C57.2516 18.9229 57.3804 19.4666 57.6895 20.1778L57.8257 20.4832L66.3632 39.3302L69.4103 45.9998Z" fill="url(#paint1_linear_7677_59875)"/>
<path d="M85.0017 14L72.6431 44.271C72.4357 44.7775 72.0896 45.2096 71.6479 45.5135C71.2062 45.8174 70.6882 45.9798 70.1584 45.9806H63.727C63.1572 46.0301 62.5834 45.9846 62.0273 45.846C63.1905 45.8721 64.1879 44.7237 64.7785 43.4069V43.3732C64.8145 43.2835 64.8541 43.1974 64.8865 43.1076L66.4494 39.2845L75.7255 16.57C76.035 15.8089 76.5537 15.1595 77.2166 14.7031C77.8795 14.2466 78.6573 14.0034 79.4526 14.0037L85.0017 14Z" fill="url(#paint2_linear_7677_59875)"/>
<path d="M80.8955 46.0001C83.1613 46.0001 84.9981 44.1633 84.9981 41.8975C84.9981 39.6317 83.1613 37.7949 80.8955 37.7949C78.6298 37.7949 76.793 39.6317 76.793 41.8975C76.793 44.1633 78.6298 46.0001 80.8955 46.0001Z" fill="url(#paint3_linear_7677_59875)"/>
<path d="M107.552 24.65C108.704 24.65 109.226 25.712 109.226 26.612C109.226 27.53 108.668 28.538 107.48 28.538H104.852V24.65H107.552ZM102.548 35H104.852V30.59H107.588C110.342 30.59 111.53 28.628 111.53 26.612C111.53 24.596 110.342 22.598 107.588 22.598H102.548V35ZM119.337 35H121.533V26.594H119.337V27.638C118.707 26.72 117.501 26.414 116.727 26.414C114.513 26.414 112.443 28.106 112.443 30.788C112.443 33.47 114.513 35.162 116.727 35.162C117.537 35.162 118.815 34.784 119.337 33.92V35ZM114.711 30.788C114.711 29.42 115.809 28.52 117.033 28.52C118.185 28.52 119.337 29.348 119.337 30.788C119.337 32.228 118.239 33.056 117.033 33.056C115.809 33.056 114.711 32.156 114.711 30.788ZM131.815 26.594H129.475L127.369 31.832L125.281 26.594H122.941L126.217 34.352L124.291 39.104H126.613L131.815 26.594ZM149.642 26.594H147.302L145.592 31.904L143.882 26.594H141.938L140.246 31.904L138.536 26.594H136.196L139.292 35H141.11L142.928 29.366L144.8 35H146.636L149.642 26.594ZM153.34 26.594H151.162V35H153.34V26.594ZM150.838 23.336C150.838 24.11 151.486 24.668 152.26 24.668C153.034 24.668 153.646 24.11 153.646 23.336C153.646 22.598 153.034 22.022 152.26 22.022C151.486 22.022 150.838 22.598 150.838 23.336ZM158.7 23.39H156.522V26.594H154.992V28.358H156.522V35H158.7V28.358H160.482V26.594H158.7V23.39ZM164.327 30.518C164.327 29.06 165.425 28.556 166.343 28.556C167.243 28.556 168.125 29.222 168.125 30.428V35H170.321V30.32C170.321 27.854 169.115 26.414 166.937 26.414C166.109 26.414 164.705 26.882 164.327 27.89V22.022H162.131V35H164.327V30.518ZM175.715 22.598L179.495 35H181.565L185.327 22.598H182.933L180.521 31.238L178.109 22.598H175.715ZM194.19 30.77C194.19 28.106 192.3 26.414 189.924 26.414C187.53 26.414 185.568 28.106 185.568 30.77C185.568 33.416 187.53 35.18 189.924 35.18C191.472 35.18 193.074 34.586 193.848 33.146C193.29 32.858 192.696 32.534 192.174 32.246C191.76 32.966 190.914 33.326 190.068 33.326C188.826 33.326 187.89 32.66 187.746 31.526H194.154C194.172 31.328 194.19 30.986 194.19 30.77ZM187.728 30.032C187.89 28.88 188.79 28.25 189.942 28.25C191.022 28.25 191.886 28.88 192.048 30.032H187.728ZM196.039 35H198.235V22.022H196.039V35ZM200.715 35H202.911V22.022H200.715V35ZM211.762 35H213.958V26.594H211.762V27.638C211.132 26.72 209.926 26.414 209.152 26.414C206.938 26.414 204.868 28.106 204.868 30.788C204.868 33.47 206.938 35.162 209.152 35.162C209.962 35.162 211.24 34.784 211.762 33.92V35ZM207.136 30.788C207.136 29.42 208.234 28.52 209.458 28.52C210.61 28.52 211.762 29.348 211.762 30.788C211.762 32.228 210.664 33.056 209.458 33.056C208.234 33.056 207.136 32.156 207.136 30.788Z" fill="white"/>
<defs>
<linearGradient id="paint0_linear_7677_59875" x1="72.5" y1="34.5" x2="58.6147" y2="31.3925" gradientUnits="userSpaceOnUse">
<stop stop-color="#E9E9E9"/>
<stop offset="1" stop-color="white"/>
</linearGradient>
<linearGradient id="paint1_linear_7677_59875" x1="66.2764" y1="17.451" x2="51.8174" y2="45.6041" gradientUnits="userSpaceOnUse">
<stop stop-color="#E9E9E9"/>
<stop offset="1" stop-color="white"/>
</linearGradient>
<linearGradient id="paint2_linear_7677_59875" x1="64.5" y1="42" x2="70.2808" y2="50.1554" gradientUnits="userSpaceOnUse">
<stop stop-color="#E9E9E9"/>
<stop offset="1" stop-color="white"/>
</linearGradient>
<linearGradient id="paint3_linear_7677_59875" x1="83.4312" y1="37.3489" x2="80.3717" y2="47.1781" gradientUnits="userSpaceOnUse">
<stop stop-color="#E9E9E9"/>
<stop offset="1" stop-color="white"/>
</linearGradient>
</defs>
</svg>
